Here is our third remastered version ,this time based on the Original mvk h.264
hd.1080p from Simon Klose.
Remastered as same format (mkv h264) but now to AC3-5.1/6-channels/48 Khz/16 Bit/512 Kbps

Result is very acceptable and sound has been sucessfully upmixed to 6 channels anyway.
Still more pleasant than only 2 channels so.

Spoken language : Swedish+English

SubTitle : English 

Final size : 8,04 Go (BD9 or DVD 8.5)
H264 here has been executed with NVidia CUDA.

__________________________

More details :


    Complete name : TPB_AFK.(2013)-hd.1080p-h264-Remastered[)(]Ac3-5.1-(Sw+En)+(En-sub).mkv

    Format : Matroska
    Format version : Version 2
    File size : 8.04 GiB
    Duration : 1h 22mn
    Overall bit rate mode : Variable
    Overall bit rate : 14.0 Mbps
    Writing application : Lavf51.12.1
    Writing library : Lavf51.12.1
  Video #1
    ID : 1
    Format : AVC
    Format/Info : Advanced Video Codec
    Format profile : Baseline@L4.0
    Format settings, CABAC : No
    Format settings, ReFrames : 1 frame
    Format settings, GOP : M=1, N=12
    Codec ID : V_MPEG4/ISO/AVC
    Duration : 1h 22mn
    Bit rate mode : Variable
    Bit rate : 13.2 Mbps
    Maximum bit rate : 19.5 Mbps
    Width : 1 920 pixels
    Height : 1 080 pixels
    Display aspect ratio : 16:9
    Frame rate mode : Constant
    Frame rate : 25.000 fps
    Original frame rate : 24.000 fps
    Color space : YUV
    Chroma subsampling : 4:2:0
    Bit depth : 8 bits
    Scan type : Progressive
    Bits/(Pixel*Frame) : 0.255
    Stream size : 7.59 GiB (94%)
    Language : English
    Default : Yes
    Forced : No

  Audio #2
    ID : 2
    Format : AC-3
    Format/Info : Audio Coding 3
    Mode extension : CM (complete main)
    Format settings, Endianness : Big
    Codec ID : A_AC3
    Duration : 1h 22mn
    Bit rate mode : Constant
    Bit rate : 512 Kbps
    Channel(s) : 6 channels
    Channel positions : Front: L C R, Side: L R, LFE
    Sampling rate : 48.0 KHz
    Bit depth : 16 bits
    Compression mode : Lossy
    Stream size : 301 MiB (4%)
    Language : English
    Default : Yes
    Forced : No

  Text #3
    ID : 3
    Format : UTF-8
    Codec ID : S_TEXT/UTF8
    Codec ID/Info : UTF-8 Plain Text
    Language : English
    Default : Yes
    Forced : No

Enjoy and seed,please.

Best regards

